<svg xmlns="http://www.w3.org/2000/svg" version="1.1" viewBox="0 0 650 400"><rect x="108.33" y="237" width="21.67" height="80" style="stroke:hsl(160,35%,45%);fill:hsl(160,35%,50%);opacity:0.4"/><rect x="130" y="244" width="21.67" height="73" style="stroke:hsl(160,35%,45%);fill:hsl(160,35%,50%);opacity:0.4"/><rect x="151.67" y="250" width="21.67" height="67" style="stroke:hsl(160,35%,45%);fill:hsl(160,35%,50%);opacity:0.4"/><rect x="173.34" y="254" width="21.67" height="63" style="stroke:hsl(160,35%,45%);fill:hsl(160,35%,50%);opacity:0.4"/><rect x="195.01" y="256" width="21.67" height="61" style="stroke:hsl(160,35%,45%);fill:hsl(160,35%,50%);opacity:0.4"/><rect x="216.68" y="257" width="21.67" height="60" style="stroke:hsl(160,35%,45%);fill:hsl(160,35%,50%);opacity:0.4"/><rect x="238.35" y="256" width="21.67" height="61" style="stroke:hsl(160,35%,45%);fill:hsl(160,35%,50%);opacity:0.4"/><rect x="260.02" y="254" width="21.67" height="63" style="stroke:hsl(160,35%,45%);fill:hsl(160,35%,50%);opacity:0.4"/><rect x="281.69" y="250" width="21.67" height="67" style="stroke:hsl(160,35%,45%);fill:hsl(160,35%,50%);opacity:0.4"/><rect x="303.36" y="244" width="21.67" height="73" style="stroke:hsl(160,35%,45%);fill:hsl(160,35%,50%);opacity:0.4"/><rect x="325.03" y="237" width="21.67" height="80" style="stroke:hsl(160,35%,45%);fill:hsl(160,35%,50%);opacity:0.4"/><rect x="346.7" y="228" width="21.67" height="89" style="stroke:hsl(160,35%,45%);fill:hsl(160,35%,50%);opacity:0.4"/><rect x="368.37" y="218" width="21.67" height="99" style="stroke:hsl(160,35%,45%);fill:hsl(160,35%,50%);opacity:0.4"/><rect x="390.04" y="206" width="21.67" height="111" style="stroke:hsl(160,35%,45%);fill:hsl(160,35%,50%);opacity:0.4"/><rect x="411.71" y="192" width="21.67" height="125" style="stroke:hsl(160,35%,45%);fill:hsl(160,35%,50%);opacity:0.4"/><rect x="433.38" y="177" width="21.67" height="140" style="stroke:hsl(160,35%,45%);fill:hsl(160,35%,50%);opacity:0.4"/><rect x="455.05" y="160" width="21.67" height="157" style="stroke:hsl(160,35%,45%);fill:hsl(160,35%,50%);opacity:0.4"/><rect x="476.72" y="142" width="21.67" height="175" style="stroke:hsl(160,35%,45%);fill:hsl(160,35%,50%);opacity:0.4"/><rect x="498.39" y="122" width="21.67" height="195" style="stroke:hsl(160,35%,45%);fill:hsl(160,35%,50%);opacity:0.4"/><rect x="520.06" y="100" width="21.67" height="217" style="stroke:hsl(160,35%,45%);fill:hsl(160,35%,50%);opacity:0.4"/></svg>