<svg xmlns="http://www.w3.org/2000/svg" version="1.1" viewBox="0 0 650 400"><rect x="108.33" y="237" width="28.89" height="80" style="stroke:hsl(160,35%,45%);fill:hsl(160,35%,50%);opacity:0.4"/><rect x="137.22" y="246" width="28.89" height="71" style="stroke:hsl(160,35%,45%);fill:hsl(160,35%,50%);opacity:0.4"/><rect x="166.11" y="253" width="28.89" height="64" style="stroke:hsl(160,35%,45%);fill:hsl(160,35%,50%);opacity:0.4"/><rect x="195" y="256" width="28.89" height="61" style="stroke:hsl(160,35%,45%);fill:hsl(160,35%,50%);opacity:0.4"/><rect x="223.89" y="257" width="28.89" height="60" style="stroke:hsl(160,35%,45%);fill:hsl(160,35%,50%);opacity:0.4"/><rect x="252.78" y="255" width="28.89" height="62" style="stroke:hsl(160,35%,45%);fill:hsl(160,35%,50%);opacity:0.4"/><rect x="281.67" y="250" width="28.89" height="67" style="stroke:hsl(160,35%,45%);fill:hsl(160,35%,50%);opacity:0.4"/><rect x="310.56" y="242" width="28.89" height="75" style="stroke:hsl(160,35%,45%);fill:hsl(160,35%,50%);opacity:0.4"/><rect x="339.45" y="231" width="28.89" height="86" style="stroke:hsl(160,35%,45%);fill:hsl(160,35%,50%);opacity:0.4"/><rect x="368.34" y="218" width="28.89" height="99" style="stroke:hsl(160,35%,45%);fill:hsl(160,35%,50%);opacity:0.4"/><rect x="397.23" y="201" width="28.89" height="116" style="stroke:hsl(160,35%,45%);fill:hsl(160,35%,50%);opacity:0.4"/><rect x="426.12" y="182" width="28.89" height="135" style="stroke:hsl(160,35%,45%);fill:hsl(160,35%,50%);opacity:0.4"/><rect x="455.01" y="160" width="28.89" height="157" style="stroke:hsl(160,35%,45%);fill:hsl(160,35%,50%);opacity:0.4"/><rect x="483.9" y="135" width="28.89" height="182" style="stroke:hsl(160,35%,45%);fill:hsl(160,35%,50%);opacity:0.4"/><rect x="512.79" y="108" width="28.89" height="209" style="stroke:hsl(160,35%,45%);fill:hsl(160,35%,50%);opacity:0.4"/></svg>