<svg xmlns="http://www.w3.org/2000/svg" version="1.1" viewBox="0 0 650 400"><rect x="108.33" y="237" width="24.07" height="80" style="stroke:hsl(160,35%,45%);fill:hsl(160,35%,50%);opacity:0.4"/><rect x="132.4" y="245" width="24.07" height="72" style="stroke:hsl(160,35%,45%);fill:hsl(160,35%,50%);opacity:0.4"/><rect x="156.47" y="251" width="24.07" height="66" style="stroke:hsl(160,35%,45%);fill:hsl(160,35%,50%);opacity:0.4"/><rect x="180.54" y="255" width="24.07" height="62" style="stroke:hsl(160,35%,45%);fill:hsl(160,35%,50%);opacity:0.4"/><rect x="204.61" y="257" width="24.07" height="60" style="stroke:hsl(160,35%,45%);fill:hsl(160,35%,50%);opacity:0.4"/><rect x="228.68" y="257" width="24.07" height="60" style="stroke:hsl(160,35%,45%);fill:hsl(160,35%,50%);opacity:0.4"/><rect x="252.75" y="255" width="24.07" height="62" style="stroke:hsl(160,35%,45%);fill:hsl(160,35%,50%);opacity:0.4"/><rect x="276.82" y="251" width="24.07" height="66" style="stroke:hsl(160,35%,45%);fill:hsl(160,35%,50%);opacity:0.4"/><rect x="300.89" y="245" width="24.07" height="72" style="stroke:hsl(160,35%,45%);fill:hsl(160,35%,50%);opacity:0.4"/><rect x="324.96" y="237" width="24.07" height="80" style="stroke:hsl(160,35%,45%);fill:hsl(160,35%,50%);opacity:0.4"/><rect x="349.03" y="227" width="24.07" height="90" style="stroke:hsl(160,35%,45%);fill:hsl(160,35%,50%);opacity:0.4"/><rect x="373.1" y="215" width="24.07" height="102" style="stroke:hsl(160,35%,45%);fill:hsl(160,35%,50%);opacity:0.4"/><rect x="397.17" y="201" width="24.07" height="116" style="stroke:hsl(160,35%,45%);fill:hsl(160,35%,50%);opacity:0.4"/><rect x="421.24" y="186" width="24.07" height="131" style="stroke:hsl(160,35%,45%);fill:hsl(160,35%,50%);opacity:0.4"/><rect x="445.31" y="168" width="24.07" height="149" style="stroke:hsl(160,35%,45%);fill:hsl(160,35%,50%);opacity:0.4"/><rect x="469.38" y="148" width="24.07" height="169" style="stroke:hsl(160,35%,45%);fill:hsl(160,35%,50%);opacity:0.4"/><rect x="493.45" y="126" width="24.07" height="191" style="stroke:hsl(160,35%,45%);fill:hsl(160,35%,50%);opacity:0.4"/><rect x="517.52" y="103" width="24.07" height="214" style="stroke:hsl(160,35%,45%);fill:hsl(160,35%,50%);opacity:0.4"/></svg>