<svg xmlns="http://www.w3.org/2000/svg" version="1.1" viewBox="0 0 650 400"><rect x="108.33" y="237" width="25.49" height="80" style="stroke:hsl(160,35%,45%);fill:hsl(160,35%,50%);opacity:0.4"/><rect x="133.82" y="245" width="25.49" height="72" style="stroke:hsl(160,35%,45%);fill:hsl(160,35%,50%);opacity:0.4"/><rect x="159.31" y="251" width="25.49" height="66" style="stroke:hsl(160,35%,45%);fill:hsl(160,35%,50%);opacity:0.4"/><rect x="184.8" y="255" width="25.49" height="62" style="stroke:hsl(160,35%,45%);fill:hsl(160,35%,50%);opacity:0.4"/><rect x="210.29" y="257" width="25.49" height="60" style="stroke:hsl(160,35%,45%);fill:hsl(160,35%,50%);opacity:0.4"/><rect x="235.78" y="256" width="25.49" height="61" style="stroke:hsl(160,35%,45%);fill:hsl(160,35%,50%);opacity:0.4"/><rect x="261.27" y="254" width="25.49" height="63" style="stroke:hsl(160,35%,45%);fill:hsl(160,35%,50%);opacity:0.4"/><rect x="286.76" y="249" width="25.49" height="68" style="stroke:hsl(160,35%,45%);fill:hsl(160,35%,50%);opacity:0.4"/><rect x="312.25" y="241" width="25.49" height="76" style="stroke:hsl(160,35%,45%);fill:hsl(160,35%,50%);opacity:0.4"/><rect x="337.74" y="232" width="25.49" height="85" style="stroke:hsl(160,35%,45%);fill:hsl(160,35%,50%);opacity:0.4"/><rect x="363.23" y="220" width="25.49" height="97" style="stroke:hsl(160,35%,45%);fill:hsl(160,35%,50%);opacity:0.4"/><rect x="388.72" y="207" width="25.49" height="110" style="stroke:hsl(160,35%,45%);fill:hsl(160,35%,50%);opacity:0.4"/><rect x="414.21" y="190" width="25.49" height="127" style="stroke:hsl(160,35%,45%);fill:hsl(160,35%,50%);opacity:0.4"/><rect x="439.7" y="172" width="25.49" height="145" style="stroke:hsl(160,35%,45%);fill:hsl(160,35%,50%);opacity:0.4"/><rect x="465.19" y="152" width="25.49" height="165" style="stroke:hsl(160,35%,45%);fill:hsl(160,35%,50%);opacity:0.4"/><rect x="490.68" y="129" width="25.49" height="188" style="stroke:hsl(160,35%,45%);fill:hsl(160,35%,50%);opacity:0.4"/><rect x="516.17" y="104" width="25.49" height="213" style="stroke:hsl(160,35%,45%);fill:hsl(160,35%,50%);opacity:0.4"/></svg>