<svg xmlns="http://www.w3.org/2000/svg" version="1.1" viewBox="0 0 650 400"><rect x="108.33" y="237" width="27.08" height="80" style="stroke:hsl(160,35%,45%);fill:hsl(160,35%,50%);opacity:0.4"/><rect x="135.41" y="246" width="27.08" height="71" style="stroke:hsl(160,35%,45%);fill:hsl(160,35%,50%);opacity:0.4"/><rect x="162.49" y="252" width="27.08" height="65" style="stroke:hsl(160,35%,45%);fill:hsl(160,35%,50%);opacity:0.4"/><rect x="189.57" y="256" width="27.08" height="61" style="stroke:hsl(160,35%,45%);fill:hsl(160,35%,50%);opacity:0.4"/><rect x="216.65" y="257" width="27.08" height="60" style="stroke:hsl(160,35%,45%);fill:hsl(160,35%,50%);opacity:0.4"/><rect x="243.73" y="256" width="27.08" height="61" style="stroke:hsl(160,35%,45%);fill:hsl(160,35%,50%);opacity:0.4"/><rect x="270.81" y="252" width="27.08" height="65" style="stroke:hsl(160,35%,45%);fill:hsl(160,35%,50%);opacity:0.4"/><rect x="297.89" y="246" width="27.08" height="71" style="stroke:hsl(160,35%,45%);fill:hsl(160,35%,50%);opacity:0.4"/><rect x="324.97" y="237" width="27.08" height="80" style="stroke:hsl(160,35%,45%);fill:hsl(160,35%,50%);opacity:0.4"/><rect x="352.05" y="226" width="27.08" height="91" style="stroke:hsl(160,35%,45%);fill:hsl(160,35%,50%);opacity:0.4"/><rect x="379.13" y="212" width="27.08" height="105" style="stroke:hsl(160,35%,45%);fill:hsl(160,35%,50%);opacity:0.4"/><rect x="406.21" y="196" width="27.08" height="121" style="stroke:hsl(160,35%,45%);fill:hsl(160,35%,50%);opacity:0.4"/><rect x="433.29" y="177" width="27.08" height="140" style="stroke:hsl(160,35%,45%);fill:hsl(160,35%,50%);opacity:0.4"/><rect x="460.37" y="156" width="27.08" height="161" style="stroke:hsl(160,35%,45%);fill:hsl(160,35%,50%);opacity:0.4"/><rect x="487.45" y="132" width="27.08" height="185" style="stroke:hsl(160,35%,45%);fill:hsl(160,35%,50%);opacity:0.4"/><rect x="514.53" y="106" width="27.08" height="211" style="stroke:hsl(160,35%,45%);fill:hsl(160,35%,50%);opacity:0.4"/></svg>