<?xml version="1.0" standalone="no"?>
<!-- Creator: fig2dev Version 3.2.6a -->
<!-- CreationDate: 2017-11-10 21:24:44 -->
<!-- Magnification: 1 -->
<svg	xmlns="http://www.w3.org/2000/svg"
	xmlns:xlink="http://www.w3.org/1999/xlink"
	width="640px" height="400px"
	viewBox="3438 1863 8274 5877">
  <g fill="none">
    <!-- Line -->
    <defs>
      <clipPath id="cp0">
	<path clip-rule="evenodd" d="M 3438,1863 H 11712 V 7740 H 3438 z
				     M 8430,7213 8400,7333 8370,7213 8393,7357 8407,7357z"/>
      </clipPath>
    </defs>
    <polyline points=" 8400,4725 8400,5475" clip-path="url(#cp1)"
	      stroke="#000000" stroke-width="20px"/>
    <!-- Backward arrow to point 8400,4725 -->
    <polyline points=" 8370,4917 8400,4800 8430,4917"
	      stroke="#000000" stroke-width="20px" stroke-miterlimit="8"/>

    <polyline points=" 8400,6525 8400,7350" clip-path="url(#cp0)"
	      stroke="#000000" stroke-width="20px"/>
    <!-- Forward arrow to point 8400,7350 -->
    <polyline points=" 8370,7213 8400,7320 8430,7213"
	      stroke="#000000" stroke-width="20px" stroke-miterlimit="8"/>

    <!-- Line -->
    <polyline points=" 3450,7350 11700,7350"
	      stroke="#000000" stroke-width="8px"/>
    <!-- Line -->
    <defs>
      <clipPath id="cp1">
	<path clip-rule="evenodd" d="M 3438,1863 H 11712 V 7740 H 3438 z
				     M 8430,7213 8400,7333 8370,7213 8393,7357 8407,7357z
				     M 8370,4862 8400,4742 8430,4862 8407,4718 8393,4718z"/>
      </clipPath>
    </defs>

    <!-- Line -->
    <rect x="6675" y="4725" width="1425" height="2625"
	  stroke="#000000" stroke-width="25" style="stroke:hsl(160,35%,45%);fill:hsl(160,35%,50%);opacity:0.4"/>
    <polyline points=" 6675,7250 6675,7450" stroke="#000000" stroke-width="20px"/>
    <!-- Line -->
    <polyline points=" 3900,5850 3901,5850 3902,5850 3904,5849 3908,5848 3914,5847
		      3922,5845 3932,5842 3944,5839 3960,5835 3978,5830 3999,5825 4023,5819 4050,5811
		      4080,5803 4113,5795 4149,5785 4188,5774 4230,5762 4274,5750 4321,5737 4370,5722
		      4422,5707 4476,5691 4531,5675 4588,5657 4647,5639 4708,5619 4770,5599 4833,5578
		      4897,5557 4962,5534 5029,5510 5096,5486 5165,5460 5234,5434 5305,5406 5377,5377
		      5450,5347 5524,5316 5599,5283 5675,5249 5754,5213 5833,5176 5914,5136 5997,5095
		      6082,5052 6169,5006 6257,4959 6347,4909 6440,4856 6534,4802 6630,4745 6727,4685
		      6826,4623 6925,4559 7025,4493 7125,4425 7221,4358 7315,4291 7408,4223 7499,4155
		      7587,4087 7673,4019 7756,3953 7837,3887 7915,3821 7991,3757 8064,3693 8134,3630
		      8202,3569 8268,3508 8332,3447 8394,3388 8454,3329 8512,3271 8568,3213 8623,3156
		      8677,3100 8729,3044 8779,2989 8829,2934 8877,2880 8924,2826 8970,2773 9015,2721
		      9058,2669 9101,2618 9142,2568 9182,2519 9221,2470 9259,2423 9295,2378 9330,2333
		      9363,2290 9395,2249 9426,2210 9454,2172 9481,2137 9506,2104 9530,2073 9551,2044
		      9571,2018 9588,1994 9604,1972 9618,1953 9630,1937 9641,1922 9650,1910 9657,1900
		      9663,1892 9667,1886 9670,1882 9673,1878 9674,1876 9675,1875"
	      style="stroke:hsl(209, 35%, 45%);stroke-width:35;" stroke-linejoin="bevel"/>
    <!-- Text -->
    <!-- 
	 <text xml:space="preserve" x="8400" y="6000" fill="#000000" font-family="Times" font-style="normal" font-weight="normal" font-size="144" text-anchor="start">f(x)</text>
	 -->
	 <!-- Text -->
	 <!--
	     <text xml:space="preserve" x="7200" y="7725" fill="#000000" font-family="Times" font-style="normal" font-weight="normal" font-size="144" text-anchor="start">Delta x</text>
	 -->
  </g>
</svg>
